<svg aria-hidden="true" style="position:absolute;width:0;height:0;overflow:hidden" xmlns="http://www.w3.org/2000/svg">
  <defs>
    <symbol id="icon-antenna" viewBox="0 0 32 32">
      <path fill="#212121" style="fill:var(--color1, #212121)" d="m30.77 22.1-8.44-8.5.94-4.62c.24.09.5.14.76.14h.03a2.16 2.16 0 1 0-2.03-1.42l-4.96.6L8.97.16A.54.54 0 0 0 8.6 0a.52.52 0 0 0-.37.15L6.7 1.65a.53.53 0 0 0 0 .76l.82.82a14.9 14.9 0 0 0 2.52 17.66c.04.05.09.08.14.1-.03.2-.05.38-.05.56v6.18h-6.4a2.67 2.67 0 0 0-2.67 2.67v1.06c0 .3.24.54.54.54h24.53c.3 0 .53-.24.53-.54V30.4c0-1.47-1.2-2.67-2.66-2.67h-6.4V25a14.79 14.79 0 0 0 10.17-1.5l-.08.04.81.82a.52.52 0 0 0 .75 0l1.51-1.5a.53.53 0 0 0 0-.75zm-7.5-15.87A1.06 1.06 0 0 1 25.1 7c0 .59-.47 1.06-1.06 1.06a1.07 1.07 0 0 1-.75-1.82zm-1.25 3.5-.6 2.95-1.17-1.18 1.77-1.76zm-.6-.9-1.92 1.91L18 9.25l3.4-.41zM24 28.8c.89 0 1.6.72 1.6 1.6v.54H2.14v-.54c0-.88.72-1.6 1.6-1.6H24zm-7.46-2.14v1.07H11.2v-1.07h5.34zM11.2 25.6v-4.05c0-1.3 1.2-2.35 2.67-2.35s2.66 1.05 2.66 2.35v4.05H11.2zm6.4-1.7v-2.35c0-1.88-1.67-3.41-3.73-3.41h-.07a3.8 3.8 0 0 0-3.2 1.76l-.02.02A13.81 13.81 0 0 1 8.34 3.96l-.03.07 18.6 18.71a13.64 13.64 0 0 1-9.4 1.15l.1.01zm11.3-.68-.76-.76L7.84 2.04l.75-.75 21.06 21.18-.76.75z"/>
      <path fill="#2196f3" style="fill:var(--color2, #2196f3)" d="M13.87 20.27a1.6 1.6 0 0 0 0 3.2 1.6 1.6 0 0 0 0-3.2zm.38 1.98a.53.53 0 0 1-.91-.38c0-.3.23-.54.53-.54a.54.54 0 0 1 .37.91z"/>
    </symbol>
    <symbol id="icon-astronaut" viewBox="0 0 32 32">
      <path fill="#2196f3" style="fill:var(--color2, #2196f3)" d="M31.97 4.53a.54.54 0 0 0-.43-.37l-1.9-.27-.86-1.74c-.18-.36-.78-.36-.96 0l-.85 1.74-1.9.27a.54.54 0 0 0-.3.92l1.38 1.34-.33 1.9v.09a.53.53 0 0 0 .78.47l1.7-.9 1.71.9a.53.53 0 0 0 .78-.57v.01l-.33-1.9 1.39-1.35c.14-.14.2-.35.13-.55zm-2.46 1.32a.53.53 0 0 0-.15.47l.19 1.12-1-.53a.52.52 0 0 0-.5 0l-1 .53.2-1.12a.53.53 0 0 0-.16-.47l-.81-.79 1.12-.16a.54.54 0 0 0 .4-.3l.5-1 .5 1c.08.16.23.27.4.3l1.12.16-.8.8zm-3.38 14.68h-1.06v1.06h1.07v-1.07zm0 2.13h-1.06v1.06h1.07v-1.06zm1.07-1.07h-1.06v1.07h1.06v-1.07zm-2.13 0H24v1.07h1.06v-1.07zm-2.67 4.8h-1.06v1.07h1.06v-1.07zm0 2.14h-1.06v1.06h1.06v-1.07zm1.07-1.07H22.4v1.06h1.06v-1.06zm-2.13 0h-1.07v1.06h1.07v-1.06zM16 24.26h-1.06v1.06H16v-1.06zm0 2.13h-1.06v1.07H16v-1.07zm1.07-1.06H16v1.06h1.06v-1.07zm-2.13 0h-1.07v1.06h1.07v-1.07zM5.87 6.13H4.8v1.06h1.07V6.12zm0 2.13H4.8v1.06h1.07V8.26zm1.06-1.07H5.86v1.07h1.07V7.19zm-2.13 0H3.74v1.07H4.8V7.19z"/>
      <path fill="#212121" style="fill:var(--color1, #212121)" d="M24.71 14.16c-.28-.38-.7-.64-1.18-.7a1.77 1.77 0 0 0-1.34.35l-1.25.96-1.9 1.41-1.36-.54A6.93 6.93 0 0 0 14.83 2.4a6.95 6.95 0 0 0-6.96 6.93c0 1.4.42 2.7 1.14 3.79l-.02-.03-2.77-.02H6.2a.43.43 0 0 0-.16.04h-.03l-.03.01-3.23 1.6-1.9.91a1.78 1.78 0 0 0 1.8 3.09h-.02l1.39-.73 2.26-1.17 1.36-.01-6.78 6.76a1.64 1.64 0 0 0 0 2.35 1.66 1.66 0 0 0 2.36 0l1.3-1.31 1.75-1.3.9.9-1.76 1.75-1.34 1.33a1.64 1.64 0 0 0 0 2.36 1.66 1.66 0 0 0 2.36 0l3.48-3.47 1.01-1 .02-.03 5.16-5.65 3.48.5h.06a.5.5 0 0 0 .2-.04l.05-.03.06-.02 3.21-2.13.03-.04.04-.02 1.27-1.2a1.78 1.78 0 0 0 .2-2.36h.01zm-22.58 3.6a.72.72 0 0 1-.78-1.2l1.32-.63.32.92.13.4-.99.52zm3.5-1.82-1.55.8-.26-.74-.18-.54 2.03-1-.04 1.48zm15.1-6.61a5.8 5.8 0 0 1-.6 2.56l-4.18-1.9a1.86 1.86 0 0 0-.78-1.39h-.01l1.46-4.86a5.87 5.87 0 0 1 4.1 5.59zm-11.8 0a5.89 5.89 0 0 1 6.68-5.82h-.03l-1.44 4.75h-.05c-1.03 0-1.87.83-1.87 1.86a1.87 1.87 0 0 0 3.48.93l3.87 1.75A5.9 5.9 0 0 1 8.93 9.33zm5.96.8a.8.8 0 1 1-1.61 0 .81.81 0 0 1 1.61 0zM2.47 25.15a.61.61 0 0 1-.86 0 .6.6 0 0 1 0-.85l.96-.96.86.85-.97.95zm3.21 3.73a.6.6 0 0 1-.85-.84l.96-.96.85.84-.96.96zm3.49-3.47L7.4 27.17l-.85-.85 1.76-1.75.1-.14.02-.04a.37.37 0 0 0 .02-.12l.02-.08-.02-.1-.02-.1a.7.7 0 0 0-.09-.14l-.03-.04-1.6-1.6-.06-.03a.2.2 0 0 0-.1-.06.5.5 0 0 0-.08-.03.54.54 0 0 0-.1-.03l-.1.01-.1.02a.38.38 0 0 0-.1.05c-.02 0-.04 0-.06.02L4.23 23.5l-.9-.9 2.4-2.39 4.36 4.3-.92.9zm6.81-7.02h-.07a.52.52 0 0 0-.35.14l-.05.03-4.7 5.15-4.32-4.25 2.83-2.83c.1-.1.16-.23.16-.37 0-.3-.24-.54-.53-.54l-2.23.01.03-1.6 3.1.02a6.93 6.93 0 0 0 6.31 1.97l-.04.01c.03.03.08.07.13.09l2.4.96.16.76.18.88-3-.42zm4.04.18-.3-1.55 1.44-1.08.38.5.56.75-2.08 1.38zm3.76-2.83-.84.79-.93-1.24.83-.64a.73.73 0 0 1 .55-.14.72.72 0 0 1 .4 1.23z"/>
      <path fill="#212121" style="fill:var(--color1, #212121)" d="m13.6 18.55-2.14-2.14a.53.53 0 0 0-.75 0l-2.15 2.14a.53.53 0 0 0 0 .75l2.15 2.13a.53.53 0 0 0 .75 0l2.14-2.13a.53.53 0 0 0 0-.75zm-2.51 1.75-1.4-1.37 1.39-1.39 1.39 1.39-1.4 1.38zm6.08-15.23-.27 1.04c.08.01 1.74.45 1.74 2.15h1.07c0-2.02-1.67-2.97-2.54-3.19zm2.54 4.26h-1.07v1.06h1.07V9.32z"/>
    </symbol>
    <symbol id="icon-clock" viewBox="0 0 32 32">
      <path fill="#212121" style="fill:var(--color1, #212121)" d="M31.3 15.3a15.3 15.3 0 1 0-20.07 14.55l.1.03a.68.68 0 0 0 .54-.06.6.6 0 0 0 .28-.36l3.86-12.25a1.91 1.91 0 1 0-.85-3.63h.01l-5.1-5.1a.64.64 0 0 0-.9.9l5.1 5.1a1.87 1.87 0 0 0 .53 2.3v.01l-3.68 11.67a14.04 14.04 0 1 1 10.66-.38l-.09.03-.4-1.87a.64.64 0 0 0-1.05-.34l-3.83 3.42a.64.64 0 0 0 .22 1.08l4.9 1.57a.64.64 0 0 0 .82-.75l-.39-1.83a15.28 15.28 0 0 0 9.33-14.06v-.03zM16 14.66a.64.64 0 0 1 0 1.28.64.64 0 0 1 0-1.28zm2.1 14.87 2.18-1.95.6 2.84-2.8-.9z"/>
      <path fill="#2196f3" style="fill:var(--color2, #2196f3)" d="M15.36 3.19v1.33a.64.64 0 1 0 1.27-.06V3.18a.64.64 0 0 0-1.28 0zM3.88 14.66a.64.64 0 0 0 0 1.28h1.27a.64.64 0 0 0 0-1.28H3.87zm24.23 1.28a.64.64 0 0 0 0-1.28h-1.28a.64.64 0 0 0 0 1.28h1.28z"/>
    </symbol>
    <symbol id="icon-diagram" viewBox="0 0 32 32">
      <path fill="#2196f3" style="fill:var(--color2, #2196f3)" d="M14.93 14.97h1.06v4.8h-1.06v-4.8zm4.26 2.13h1.07v2.66h-1.07V17.1zm-8.53 1.6h1.07v1.06h-1.07V18.7zm-3.2-.54h1.07v1.6H7.46v-1.6z"/>
      <path fill="#212121" style="fill:var(--color1, #212121)" d="M1.6 28.3h25.59c.88 0 1.6-.72 1.6-1.6v-2.14c0-.89-.72-1.6-1.6-1.6h-.54V9.67l3.03-2.87a1.6 1.6 0 1 0-.75-.75v-.01L26.65 8.2V6.97c0-.88-.71-1.6-1.6-1.6H3.73c-.88 0-1.6.72-1.6 1.6v16H1.6c-.88 0-1.6.71-1.6 1.6v2.12c0 .89.72 1.6 1.6 1.6zM30.39 4.83h.04a.53.53 0 1 1-.05 1.06.54.54 0 0 1 0-1.06zM3.2 6.97c0-.3.24-.53.53-.53h21.32c.3 0 .54.23.54.53V9.2l-1.07 1.01V8.04c0-.3-.24-.54-.53-.54H4.8c-.3 0-.53.24-.53.54v13.32c0 .3.24.53.53.53H24c.29 0 .53-.23.53-.53V11.7l1.06-1.01v12.28H3.2v-16zM8 13.9h-.01a1.6 1.6 0 1 0 1.11 2.74l1.86.94c.21.1.47.05.63-.13l3.94-4.43 3.87 2.9c.21.16.5.14.69-.03l3.37-3.2v8.14H5.33V8.56h18.13v2.66l-3.78 3.57-3.9-2.92a.54.54 0 0 0-.72.07l-4 4.5-1.49-.75.03-.2c0-.88-.72-1.6-1.6-1.6zm.53 1.6a.53.53 0 1 1-1.07 0 .53.53 0 1 1 1.07 0zm3.2 8.53h5.32v.53c0 .3-.24.53-.53.53h-4.26a.54.54 0 0 1-.54-.53v-.53zm-10.67.53c0-.3.24-.53.54-.53h9.06v.53c0 .88.71 1.6 1.6 1.6h4.26c.89 0 1.6-.72 1.6-1.6v-.53h9.06c.3 0 .53.24.53.53v2.13c0 .3-.23.53-.53.53H1.6a.53.53 0 0 1-.53-.53v-2.13z"/>
    </symbol>
    <symbol id="icon-Ellipse" viewBox="0 0 32 32">
      <path fill="#2196f3" style="fill:var(--color2, #2196f3)" d="M32 16c0 4.42-1.8 8.42-4.69 11.31a15.96 15.96 0 0 1-22.62 0A15.97 15.97 0 0 1 16 0a15.97 15.97 0 0 1 16 16z"/>
      <path fill="#fff" style="fill:var(--color3, #fff)" d="M23.26 13a5.32 5.32 0 0 0-.34-1.76 3.56 3.56 0 0 0-.84-1.3c-.37-.36-.8-.65-1.29-.83-.46-.18-.99-.3-1.76-.34-.78-.03-1.03-.04-3-.04s-2.23 0-3 .04a5.3 5.3 0 0 0-1.77.34 3.64 3.64 0 0 0-2.12 2.13c-.18.46-.3.99-.34 1.76-.04.78-.05 1.03-.05 3s.01 2.22.05 3c.03.77.16 1.3.33 1.76a3.67 3.67 0 0 0 2.13 2.13c.47.18 1 .3 1.77.34.77.03 1.02.04 3 .04s2.22 0 3-.04a5.3 5.3 0 0 0 1.76-.34 3.72 3.72 0 0 0 2.13-2.13c.17-.46.3-.99.33-1.76.04-.78.05-1.02.05-3s0-2.22-.04-3zm-1.31 5.94a4 4 0 0 1-.25 1.35 2.4 2.4 0 0 1-1.38 1.38 4 4 0 0 1-1.35.25c-.77.04-1 .05-2.94.05s-2.17-.01-2.94-.05a3.97 3.97 0 0 1-1.35-.25c-.31-.11-.6-.3-.83-.54a2.26 2.26 0 0 1-.55-.83 4 4 0 0 1-.25-1.35c-.03-.77-.04-1-.04-2.94s0-2.18.04-2.94a4 4 0 0 1 .25-1.35 2.38 2.38 0 0 1 1.38-1.38 4 4 0 0 1 1.36-.25c.76-.03 1-.04 2.93-.04 1.95 0 2.18 0 2.94.04a4 4 0 0 1 1.35.25 2.33 2.33 0 0 1 1.38 1.38 4 4 0 0 1 .25 1.35c.03.77.04 1 .04 2.94s0 2.17-.04 2.93z"/>
      <path fill="#fff" style="fill:var(--color3, #fff)" d="M16.03 12.27a3.74 3.74 0 1 0 0 7.47 3.74 3.74 0 0 0 0-7.47zm0 6.16a2.42 2.42 0 1 1 0-4.85 2.42 2.42 0 0 1 0 4.85zm4.75-6.31a.87.87 0 1 1-1.74 0 .87.87 0 0 1 1.74 0z"/>
    </symbol>
    <symbol id="icon-envelope-hover" viewBox="0 0 43 32">
      <path fill="#2196f3" style="fill:var(--color2, #2196f3)" d="M38.67 0H4a4 4 0 0 0-4 4v24a4 4 0 0 0 4 4h34.67a4 4 0 0 0 4-4V4a4 4 0 0 0-4-4zm0 2.67c.18 0 .35.03.5.1L21.34 18.24 3.5 2.77c.16-.07.33-.1.51-.1h34.67zm0 26.66H4c-.74 0-1.33-.6-1.33-1.33V5.59L20.46 21a1.33 1.33 0 0 0 1.75 0L40 5.59V28c0 .74-.6 1.33-1.34 1.33z"/>
    </symbol>
    <symbol id="icon-facebook" viewBox="0 0 32 32">
      <path fill="#afb1b8" style="fill:var(--color4, #afb1b8)" d="M21.33 5.31h2.92V.23C23.75.15 22.01 0 19.99 0c-4.2 0-7.1 2.65-7.1 7.52V12H8.26v5.69h4.65V32h5.7V17.69h4.46l.7-5.69H18.6V8.08c0-1.64.45-2.77 2.74-2.77z"/>
    </symbol>
    <symbol id="icon-facebook-footer" viewBox="0 0 32 32">
      <path fill="#fff" style="fill:var(--color3, #fff)" d="M21.33 5.31h2.92V.23C23.75.15 22.01 0 19.99 0c-4.2 0-7.1 2.65-7.1 7.52V12H8.26v5.69h4.65V32h5.7V17.69h4.46l.7-5.69H18.6V8.08c0-1.64.45-2.77 2.74-2.77z"/>
    </symbol>
    <symbol id="icon-instagram-footer" viewBox="0 0 32 32">
      <path fill="#fff" style="fill:var(--color3, #fff)" d="M31.97 9.4a11.7 11.7 0 0 0-.74-3.87 7.8 7.8 0 0 0-1.86-2.84A7.87 7.87 0 0 0 26.54.84 11.7 11.7 0 0 0 22.66.1C20.95.02 20.4 0 16.06 0s-4.89.02-6.6.1C7.76.16 6.6.43 5.58.83a7.8 7.8 0 0 0-2.84 1.85A7.87 7.87 0 0 0 .9 5.52C.5 6.54.23 7.7.16 9.4c-.08 1.71-.1 2.26-.1 6.6s.02 4.9.09 6.6c.08 1.7.35 2.87.74 3.88a7.9 7.9 0 0 0 1.85 2.84c.8.81 1.77 1.44 2.84 1.84 1.02.4 2.18.67 3.88.75 1.7.07 2.25.09 6.6.09s4.88-.02 6.59-.1a11.7 11.7 0 0 0 3.88-.74 8.18 8.18 0 0 0 4.68-4.68c.4-1.02.67-2.18.75-3.88.07-1.7.09-2.25.09-6.6s0-4.89-.08-6.6zm-2.88 13.07a8.76 8.76 0 0 1-.55 2.97 5.31 5.31 0 0 1-3.04 3.04c-.56.22-1.41.48-2.97.55-1.69.07-2.2.1-6.46.1s-4.79-.02-6.47-.1a8.76 8.76 0 0 1-2.97-.55 4.93 4.93 0 0 1-1.84-1.2 4.97 4.97 0 0 1-1.19-1.83 8.81 8.81 0 0 1-.55-2.97c-.07-1.69-.1-2.2-.1-6.47s.03-4.78.1-6.46c.07-1.56.33-2.4.55-2.97a4.9 4.9 0 0 1 1.2-1.84 4.97 4.97 0 0 1 1.84-1.19A8.81 8.81 0 0 1 9.6 3c1.69-.07 2.2-.1 6.46-.1 4.28 0 4.78.03 6.47.1a8.7 8.7 0 0 1 2.96.55c.7.26 1.33.66 1.84 1.2.53.51.94 1.14 1.2 1.83.22.57.48 1.42.55 2.97.07 1.69.1 2.2.1 6.46s-.03 4.77-.1 6.46z"/>
      <path fill="#fff" style="fill:var(--color3, #fff)" d="M16.06 7.78a8.22 8.22 0 1 0 0 16.45 8.22 8.22 0 0 0 0-16.45zm0 13.55a5.33 5.33 0 1 1 0-10.66 5.33 5.33 0 0 1 0 10.67zM26.52 7.46a1.92 1.92 0 1 1-3.83 0 1.92 1.92 0 0 1 3.83 0z"/>
    </symbol>
    <symbol id="icon-linkedin" viewBox="0 0 32 32">
      <path fill="#afb1b8" style="fill:var(--color4, #afb1b8)" d="M32 32V20.26c0-5.74-1.24-10.16-7.95-10.16-3.23 0-5.39 1.77-6.27 3.45h-.1v-2.92h-6.36V32h6.63V21.42c0-2.79.52-5.48 3.97-5.48 3.4 0 3.45 3.18 3.45 5.66V32H32zM.53 10.64h6.63V32H.53V10.64zM3.84 0C1.72 0 0 1.72 0 3.84s1.72 3.88 3.84 3.88A3.88 3.88 0 0 0 7.7 3.84 3.85 3.85 0 0 0 3.84 0z"/>
    </symbol>
    <symbol id="icon-linkedin-footer" viewBox="0 0 32 32">
      <path fill="#fff" style="fill:var(--color3, #fff)" d="M32 32V20.26c0-5.74-1.24-10.16-7.95-10.16-3.23 0-5.39 1.77-6.27 3.45h-.1v-2.92h-6.36V32h6.63V21.42c0-2.79.52-5.48 3.97-5.48 3.4 0 3.45 3.18 3.45 5.66V32H32zM.53 10.64h6.63V32H.53V10.64zM3.84 0C1.72 0 0 1.72 0 3.84s1.72 3.88 3.84 3.88A3.88 3.88 0 0 0 7.7 3.84 3.85 3.85 0 0 0 3.84 0z"/>
    </symbol>
    <symbol id="icon-Logo-1" viewBox="0 0 57 32">
      <path fill="#afb1b8" style="fill:var(--color4, #afb1b8)" d="M26.73 3.17h-.08l-.33-.02h-.24a12.56 12.56 0 0 0-.7.02c-1.94.1-3.84.6-5.6 1.43l-.24.11v11.81l.54-.18a18.34 18.34 0 0 1 5.82-1.02v1.55l-.57.01h-.04A17.2 17.2 0 0 0 18 18.94V3.79a16.46 16.46 0 0 1 8.06-2.19h.23a11.19 11.19 0 0 1 2.74.35v1.53c-.62-.15-1.25-.24-1.89-.29h-.04l-.38-.02zm2.68 1.56a16.75 16.75 0 0 0 5.16-.49c1.38-.35 2.7-.87 3.96-1.55v14.88a16.46 16.46 0 0 1-8.07 2.19c-1 0-2-.11-2.96-.35V4.44a11.44 11.44 0 0 0 1.92.28zm7.57.11-.53.18a18.23 18.23 0 0 1-6.97 1l-.44-.03v12.15l.37.03a14.36 14.36 0 0 0 4.58-.41c.96-.24 1.88-.57 2.77-1l.23-.1V4.84zM19.06 24.11a.81.81 0 0 0-.6-.24.9.9 0 0 0-.35.07.8.8 0 0 0-.5.78v2.02c0 .15.02.29.08.42a.72.72 0 0 0 .48.41c.1.03.2.04.3.04a.86.86 0 0 0 .84-.85v-.22h-.53v.18l-.03.18a.32.32 0 0 1-.08.11.38.38 0 0 1-.22.08.27.27 0 0 1-.25-.11.48.48 0 0 1-.07-.27v-1.89c0-.1.02-.2.06-.3a.3.3 0 0 1 .26-.12c.05 0 .1 0 .13.02s.08.05.1.1c.07.07.1.16.1.26v.18h.52v-.2a.95.95 0 0 0-.24-.65zm3.14-.02a.94.94 0 0 0-.92-.17c-.1.04-.2.1-.27.17a.82.82 0 0 0-.21.28.96.96 0 0 0-.08.4v1.94c0 .13.03.27.08.4.05.1.12.19.2.26.09.08.18.14.28.17a.91.91 0 0 0 .92-.17.85.85 0 0 0 .28-.66v-1.95a.94.94 0 0 0-.08-.39.87.87 0 0 0-.2-.28zm-.25 2.62a.36.36 0 0 1-.1.28.39.39 0 0 1-.5 0 .35.35 0 0 1-.1-.28v-1.95a.36.36 0 0 1 .1-.28.39.39 0 0 1 .5 0 .35.35 0 0 1 .1.29v1.94zm4.38.86V23.9h-.51l-.67 1.94-.68-1.94h-.5v3.67h.52v-2.23h.01l.51 1.58h.27l.51-1.58h.01v2.23h.53zm2.98-3.41a.73.73 0 0 0-.3-.2 1.17 1.17 0 0 0-.38-.06h-.78v3.67h.53v-1.43h.27c.16 0 .32-.03.47-.1a.87.87 0 0 0 .4-.6 2.54 2.54 0 0 0-.02-.95.78.78 0 0 0-.19-.33zm-.27 1.12c0 .06-.02.13-.05.19a.3.3 0 0 1-.13.13.54.54 0 0 1-.25.04h-.24V24.4h.27a.5.5 0 0 1 .24.05c.05.03.1.08.12.14.03.06.04.13.05.2v.5zm2.76-1.38h-.44l-.8 3.67h.52l.15-.79h.71l.16.8h.52l-.83-3.68zm-.5 2.38.27-1.33.26 1.33h-.52zm3.87-.17-.8-2.21h-.5v3.67h.52v-2.2h.01l.8 2.2h.5V23.9h-.53v2.21zm3.2-2.21-.42 1.46h-.01l-.42-1.46h-.56l.72 2.12v1.55h.53v-1.55l.72-2.12h-.56zM17.6 28.61h.25v.7h.17v-.7h.25v-.14h-.67v.14zm2.12-.15-.33.86h.18l.07-.2h.34l.07.2h.2l-.35-.85h-.18zm-.03.52.12-.31.12.31h-.24zm2.13.02h.2v.11a.33.33 0 0 1-.2.08c-.04 0-.08 0-.1-.02l-.09-.07a.35.35 0 0 1-.06-.22c0-.19.08-.28.24-.28.05 0 .1 0 .13.03s.06.06.07.1l.17-.03c-.04-.17-.16-.25-.37-.25a.43.43 0 0 0-.3.1.41.41 0 0 0-.12.34c0 .11.04.23.11.32a.4.4 0 0 0 .33.12c.13 0 .26-.04.36-.13v-.34h-.37V29zm2.14-.54h-.17v.86h.6v-.15h-.43v-.7zm1.81 0h-.17v.86h.17v-.85zm1.77.58-.35-.57h-.17v.85h.16v-.56l.35.56h.17v-.85h-.16v.57zm1.6-.1h.42v-.14h-.42v-.19h.46v-.14h-.63v.85h.65v-.15h-.48v-.23zm3.88-.14h-.34v-.33h-.17v.85h.17v-.37h.34v.37h.17v-.85h-.17v.33zm1.61.14h.42v-.14h-.42v-.19h.46v-.14h-.63v.85h.64v-.15h-.47v-.23zm2.18 0c.15-.02.23-.1.23-.23a.2.2 0 0 0-.09-.2.48.48 0 0 0-.25-.04h-.36v.85h.17v-.36h.03c.04 0 .08 0 .11.02l.06.06.19.28h.2l-.1-.17a.6.6 0 0 0-.19-.2zm-.17-.12h-.13v-.2h.14c.06-.01.12 0 .17.01l.03.04.01.05-.01.05a.1.1 0 0 1-.04.03.49.49 0 0 1-.17.02zm1.82.12h.42v-.14h-.42v-.19h.46v-.14h-.63v.85h.64v-.15h-.47v-.23z"/>
    </symbol>
    <symbol id="icon-Logo-2" viewBox="0 0 57 32">
      <path fill="#afb1b8" style="fill:var(--color4, #afb1b8)" d="M19.42 26.19h.02l.02.01.12.12a.95.95 0 0 1-.33.2c-.15.06-.3.09-.46.08-.15 0-.3-.02-.44-.07a.94.94 0 0 1-.33-.2.88.88 0 0 1-.21-.3 1.02 1.02 0 0 1-.07-.4.91.91 0 0 1 .3-.7c.1-.1.22-.16.35-.2a1.39 1.39 0 0 1 .87-.02c.11.05.22.1.3.18l-.09.12-.02.02a.07.07 0 0 1-.04.01l-.04-.01-.06-.03-.07-.04a.82.82 0 0 0-.23-.07 1.11 1.11 0 0 0-.5.04.68.68 0 0 0-.42.39c-.03.1-.05.2-.05.3 0 .11.02.22.06.32a.69.69 0 0 0 .4.39c.1.03.2.05.3.05l.18-.01a.69.69 0 0 0 .38-.17.09.09 0 0 1 .06-.02zm3.36-.56c0 .13-.03.27-.08.4-.05.1-.12.21-.22.3s-.22.15-.35.2c-.28.1-.6.1-.88 0a1.03 1.03 0 0 1-.34-.2.9.9 0 0 1-.22-.31c-.1-.26-.1-.53 0-.79a.94.94 0 0 1 .22-.3c.1-.1.21-.16.34-.2.28-.1.6-.1.88 0a.91.91 0 0 1 .64.9zm-.31 0c0-.1-.02-.21-.06-.32a.65.65 0 0 0-.4-.38 1 1 0 0 0-.64 0 .68.68 0 0 0-.25.15.63.63 0 0 0-.15.23.93.93 0 0 0 0 .64.64.64 0 0 0 .4.38 1 1 0 0 0 .64 0 .66.66 0 0 0 .4-.38c.04-.1.06-.21.06-.32zm2.6.33.03.07.03-.07a.68.68 0 0 1 .04-.07l.74-1.17.04-.04a.2.2 0 0 1 .06 0h.22v1.9h-.26v-1.53l-.74 1.2-.05.04a.14.14 0 0 1-.06.01H25a.1.1 0 0 1-.04-.05l-.77-1.2v1.52h-.25v-1.9h.22a.2.2 0 0 1 .06 0l.04.04.76 1.18.04.07zm2.79-.1v.72h-.29v-1.9h.65c.12 0 .25 0 .36.04.1.02.19.06.26.12a.5.5 0 0 1 .14.18c.04.08.06.16.05.25a.55.55 0 0 1-.2.43.75.75 0 0 1-.26.13c-.12.03-.24.04-.35.04h-.36zm0-.2h.36a.8.8 0 0 0 .22-.03.52.52 0 0 0 .16-.08.36.36 0 0 0 .13-.29c.01-.05 0-.1-.02-.15s-.06-.1-.1-.13a.62.62 0 0 0-.4-.1h-.35v.78zm3.91.92h-.23a.1.1 0 0 1-.06-.01.12.12 0 0 1-.04-.05l-.2-.46h-1l-.2.46a.1.1 0 0 1-.1.06h-.23l.87-1.9h.3l.9 1.9zm-1.44-.7h.82l-.34-.78a1.28 1.28 0 0 1-.07-.18l-.03.1a.98.98 0 0 1-.03.08l-.35.77zm2.7-1.2.04.04 1.28 1.43v-1.48h.25v1.91h-.2a.16.16 0 0 1-.05-.04l-1.27-1.44v1.48h-.26v-1.9h.21zm3.72 1.14v.76h-.3v-.76l-.8-1.15h.26c.03 0 .05 0 .07.02l.04.04.5.74a1.32 1.32 0 0 1 .09.17l.03-.08a.74.74 0 0 1 .05-.09l.5-.74a.18.18 0 0 1 .04-.04.1.1 0 0 1 .06-.02h.26l-.8 1.15zm-11.83-4.35.39.04c1.96-.77 3.62-2.02 4.77-3.6s1.74-3.4 1.7-5.28l-2.17-1.87c.44 1.98.24 4.04-.6 5.93s-2.24 3.55-4.09 4.78z"/>
      <path fill="#afb1b8" style="fill:var(--color4, #afb1b8)" d="m24.15 21.38.06.01c1.97-1.22 3.48-2.94 4.32-4.92s.98-4.13.4-6.18l-3.08-2.67c1.25 2.2 1.75 4.66 1.45 7.1s-1.4 4.74-3.15 6.66zm10.45-6.54a9.62 9.62 0 0 1-3.63 5.28c-.53.4-1.1.76-1.72 1.07 1.49-.38 2.86-1.05 4-1.97s2.03-2.04 2.6-3.3l-1.25-1.08z"/>
      <path fill="#afb1b8" style="fill:var(--color4, #afb1b8)" d="m34.1 14.54-1.77-1.55c-.04 1.77-.61 3.49-1.67 4.99s-2.56 2.73-4.35 3.56c.4 0 .8-.02 1.2-.06 1.67-.6 3.15-1.54 4.3-2.75s1.94-2.65 2.3-4.19zm-9.7-8.05-2.1-1.85c-1.9.64-3.53 1.76-4.68 3.21a8 8 0 0 0-1.78 4.95c0 1.95.76 3.84 2.15 5.38s3.32 2.63 5.5 3.1c1.94-2.06 3.08-4.6 3.25-7.26s-.65-5.3-2.32-7.53zM39 14.26c0-2.32-1.06-4.54-2.95-6.18s-4.44-2.56-7.1-2.56c-1.23 0-2.45.2-3.6.58l12.99 11.28c.44-1 .67-2.05.67-3.13z"/>
    </symbol>
    <symbol id="icon-Logo-3" viewBox="0 0 57 32">
      <path fill="#2196f3" style="fill:var(--color2, #2196f3)" d="M12.88 11.26c-1.28 0-2.32.92-2.32 2.05 0 1.14 1.04 2.06 2.32 2.06 1.28 0 2.31-.92 2.31-2.06 0-1.13-1.03-2.05-2.31-2.05zm17.09-.66c0-1.58-.71-3.1-1.97-4.21s-2.95-1.75-4.73-1.75c-1.78 0-3.48.63-4.74 1.75s-1.96 2.63-1.97 4.2v8.71s13.4-1.32 13.41-8.7zM5.87 22.16c0 1.1.5 2.15 1.37 2.93s2.05 1.21 3.29 1.22c1.24 0 2.42-.44 3.3-1.22s1.36-1.83 1.36-2.93V16.1s-9.32.93-9.32 6.06zm4.66 1.09c-.24 0-.48-.07-.68-.19s-.36-.29-.45-.48c-.09-.2-.12-.42-.07-.63s.17-.4.34-.56a1.28 1.28 0 0 1 1.32-.23c.23.08.42.22.56.4s.2.39.2.6a1 1 0 0 1-.36.77 1.29 1.29 0 0 1-.87.32zm9.43-.6h-.9v.93h-.47V21.3h1.48v.38h-1.01v.59h.9v.38zm2.25-.16c0 .23-.04.42-.12.59a.9.9 0 0 1-.85.53.94.94 0 0 1-.85-.53 1.34 1.34 0 0 1-.12-.58v-.1c0-.23.04-.43.12-.6a.9.9 0 0 1 .85-.53.92.92 0 0 1 .85.54c.08.16.12.36.12.58v.1zm-.48-.1c0-.24-.04-.42-.12-.55s-.21-.18-.37-.18a.42.42 0 0 0-.36.18.95.95 0 0 0-.13.54v.11c0 .23.04.41.12.54s.21.2.37.2.28-.07.37-.19c.08-.12.12-.3.12-.54v-.11zm2 .59a.24.24 0 0 0-.1-.2 1.2 1.2 0 0 0-.33-.15c-.16-.06-.3-.1-.39-.16-.25-.14-.38-.33-.38-.56 0-.13.03-.23.1-.33s.17-.17.3-.23a1.18 1.18 0 0 1 .87.01c.13.06.22.14.3.25s.1.23.1.36h-.47c0-.1-.03-.18-.1-.24s-.15-.08-.27-.08c-.12 0-.2.02-.27.07a.23.23 0 0 0-.1.19c0 .07.04.14.12.19.07.05.18.1.33.14.26.08.46.18.58.3s.18.26.18.44c0 .2-.07.35-.22.46a.98.98 0 0 1-.6.17c-.18 0-.34-.03-.48-.1-.15-.06-.26-.15-.33-.26s-.11-.24-.11-.39h.47c0 .25.15.38.45.38.1 0 .2-.02.26-.07.06-.04.09-.1.09-.19zm2.5-1.3h-.7v1.9h-.46v-1.9h-.7v-.38h1.86v.38zm1.64.91h-.9v.61h1.06v.38H26.5V21.3h1.52v.38h-1.05v.54h.9v.37zm1.27.15h-.37v.84h-.47V21.3h.84c.27 0 .48.06.63.18s.22.3.22.51a.7.7 0 0 1-.1.39.69.69 0 0 1-.31.25l.5.93v.02h-.51l-.43-.84zm-.37-.38h.38c.11 0 .2-.03.27-.08.06-.06.1-.15.1-.25s-.03-.2-.1-.26c-.06-.06-.15-.09-.28-.09h-.37v.69zm2.84.41v.8h-.47V21.3h.89c.17 0 .32.03.45.1s.23.15.3.26c.07.12.1.25.1.4 0 .22-.08.4-.23.52a.95.95 0 0 1-.63.2h-.41zm0-.37h.42c.12 0 .22-.03.28-.1.07-.05.1-.13.1-.24 0-.11-.03-.2-.1-.27s-.16-.1-.27-.1h-.43v.7zm2.97.2h-.9v.6h1.05v.38h-1.52V21.3h1.52v.38h-1.05v.54h.9v.37zm2.17-.92h-.7v1.9h-.47v-1.9h-.68v-.38h1.85v.38zm1.64.91h-.9v.61h1.05v.38h-1.52V21.3h1.52v.38h-1.05v.54h.9v.37zm1.27.15h-.37v.84h-.47V21.3h.84c.27 0 .48.06.63.18s.22.3.22.51a.7.7 0 0 1-.1.39.69.69 0 0 1-.31.25l.49.93v.02h-.5l-.43-.84zm-.37-.38h.37c.12 0 .21-.03.28-.08.06-.06.1-.15.1-.25s-.04-.2-.1-.26c-.06-.06-.15-.09-.28-.09h-.37v.69zm2.75.62a.24.24 0 0 0-.1-.2 1.2 1.2 0 0 0-.33-.15c-.16-.06-.29-.1-.39-.16-.25-.14-.38-.33-.38-.56 0-.13.03-.23.1-.33s.17-.17.3-.23a1.2 1.2 0 0 1 .87.01c.13.06.23.14.3.25.07.1.1.23.1.36h-.47c0-.1-.03-.18-.1-.24s-.15-.08-.27-.08c-.12 0-.2.02-.27.07a.23.23 0 0 0-.1.19c0 .07.04.14.12.19.07.05.18.1.33.14.26.08.46.18.58.3s.18.26.18.44c0 .2-.07.35-.22.46a.98.98 0 0 1-.6.17c-.18 0-.34-.03-.48-.1a.68.68 0 0 1-.44-.65h.47c0 .25.15.38.45.38.1 0 .2-.02.26-.07.06-.04.1-.1.1-.19z"/>
    </symbol>
    <symbol id="icon-Logo-5" viewBox="0 0 57 32">
      <path fill="#afb1b8" style="fill:var(--color4, #afb1b8)" d="M14.27 23.86c.13.15.2.33.2.52 0 .12-.02.25-.07.36s-.14.22-.24.3a1.4 1.4 0 0 1-.88.24h-1.55v-3.3h1.52c.3-.02.6.06.84.22a.7.7 0 0 1 .3.62c0 .18-.06.35-.18.5a.84.84 0 0 1-.46.26c.2.03.39.13.52.28zm-1.82-.5h.65c.15.01.3-.03.41-.11.05-.04.1-.09.12-.15s.03-.11.02-.17c0-.06 0-.12-.03-.18s-.06-.1-.1-.14a.67.67 0 0 0-.43-.11h-.64v.86zm1.13 1.27c.05-.04.1-.1.12-.15s.04-.13.03-.19c0-.06 0-.13-.03-.18s-.07-.12-.12-.16a.71.71 0 0 0-.44-.12h-.68v.91h.68c.16.01.31-.03.44-.11zm3.79.65-.84-1.3h-.32v1.3h-.73v-3.3h1.38c.34-.03.69.07.95.28a.98.98 0 0 1 .11 1.36c-.17.18-.4.3-.66.34l.9 1.32h-.79zm-1.16-1.74h.6c.4 0 .61-.17.61-.5a.46.46 0 0 0-.15-.37.69.69 0 0 0-.47-.14h-.6l.01 1zm5.13 1.07h-1.45l-.25.67h-.76L20.2 22h.83l1.32 3.27h-.76l-.25-.67zm-.2-.5-.52-1.39-.53 1.4h1.05zm5.16 1.17h-.72l-1.61-2.25v2.25h-.72v-3.3h.72l1.61 2.25v-2.25h.73v3.3zm4.12-.79a1.5 1.5 0 0 1-.66.58c-.3.14-.66.22-1 .2h-1.3v-3.3h1.3c.34 0 .69.07 1 .2.28.14.5.34.66.58a1.8 1.8 0 0 1 0 1.74zm-.83-.08a1.14 1.14 0 0 0 0-1.58c-.25-.2-.57-.3-.9-.28h-.5v2.14h.5c.33.02.65-.08.9-.28zM21.79 3.6s9.3 3.22 9.1 7.88v7.86s-9.3-3.21-9.1-7.86V3.6zm17.39 13.9a13.5 13.5 0 0 1 5.9-2v-2.45a11.95 11.95 0 0 0-5.9 4.45z"/>
      <path fill="#afb1b8" style="fill:var(--color4, #afb1b8)" d="M38.12 18.25a12.32 12.32 0 0 1 6.97-5.72v-7.1s-13.25 4.58-12.97 11.2v11.21s.6-.2 1.52-.59c0-.36 0-.72.04-1.08a11.35 11.35 0 0 1 4.44-7.93z"/>
      <path fill="#afb1b8" style="fill:var(--color4, #afb1b8)" d="M36.86 22.4c.07-.77.23-1.54.47-2.29a10.37 10.37 0 0 0-2.8 6.77c.74-.33 1.62-.74 2.54-1.23a10.7 10.7 0 0 1-.2-3.24zm.54.05c-.1.98-.04 1.97.15 2.94 3.62-1.99 7.69-5.05 7.53-8.75v-.33c-2.58.27-5 1.3-6.88 2.95-.44 1.02-.71 2.1-.8 3.19z"/>
    </symbol>
    <symbol id="icon-Logo-6" viewBox="0 0 57 32">
      <path fill="#afb1b8" style="fill:var(--color4, #afb1b8)" d="M28.5 14.62a1.58 1.58 0 0 1-.33-1.06v-1.54c0-.47.1-.83.32-1.08s.58-.36 1.1-.36c.5 0 .84.1 1.05.31.22.27.33.6.3.92v.36h-.87v-.36c0-.12 0-.24-.03-.36a.35.35 0 0 0-.12-.21.5.5 0 0 0-.32-.09.53.53 0 0 0-.33.09.41.41 0 0 0-.15.24c-.02.12-.03.25-.03.38v1.86a1 1 0 0 0 .11.53c.05.05.1.1.18.12s.15.04.22.03c.11 0 .23-.02.31-.08a.38.38 0 0 0 .13-.23c.02-.12.03-.25.03-.37v-.38h.87v.34c.03.35-.08.69-.3.97-.2.23-.54.34-1.05.34s-.88-.12-1.1-.37zm3.64.01a1.5 1.5 0 0 1-.34-1.05v-1.61c0-.46.11-.8.34-1.04s.59-.35 1.1-.35c.52 0 .89.12 1.1.35.23.23.34.58.34 1.04v1.61c0 .46-.11.81-.33 1.05s-.6.36-1.1.36c-.51 0-.9-.12-1.11-.36zm1.51-.39a.9.9 0 0 0 .1-.47v-1.98a.88.88 0 0 0-.1-.47c-.04-.06-.1-.1-.17-.13s-.16-.04-.23-.03c-.08 0-.16 0-.24.03s-.13.07-.18.13a.85.85 0 0 0-.1.47v1.99c-.01.16.03.33.1.48a.57.57 0 0 0 .64.11.54.54 0 0 0 .18-.11v-.01zm2.08-3.61h.95l.7 2.98.73-2.98h.92l.09 4.3h-.68l-.07-2.99-.7 3h-.54l-.73-3.01-.07 3h-.68l.08-4.3zm4.45 0h1.46c.85 0 1.27.4 1.27 1.22 0 .78-.44 1.17-1.33 1.17h-.5v1.91h-.9v-4.3zm1.25 1.84a.7.7 0 0 0 .5-.14.7.7 0 0 0 .13-.49c0-.13-.01-.26-.05-.39 0-.04-.03-.08-.06-.11l-.12-.1a.94.94 0 0 0-.4-.06h-.35v1.29h.35zm2.79-1.84h.97l1 4.3h-.84l-.2-.99h-.87l-.2 1h-.86l1-4.31zm.83 2.81-.34-1.8-.34 1.8h.68zM47 10.63h.63l1.21 2.45v-2.45h.76v4.3H49l-1.23-2.56v2.56H47v-4.3zm4.36 2.67-1.01-2.67h.85l.61 1.71.58-1.7h.83l-1 2.65v1.64h-.86V13.3zM29.9 16.82v.22h-.75v1.75h-.3v-1.75h-.75v-.22h1.8zm2.3 1.98h-.23a.1.1 0 0 1-.07-.03.1.1 0 0 1-.04-.04l-.21-.47h-1.03l-.21.47c0 .02-.02.04-.03.05a.11.11 0 0 1-.07.02h-.24l.9-1.98h.32l.92 1.97zm-1.5-.74h.86l-.36-.8a1.43 1.43 0 0 1-.06-.2l-.04.11-.03.09-.36.8zm3.07.54h.17a1.02 1.02 0 0 0 .28-.06l.12-.05v-.44h-.39l-.02-.02-.02-.01v-.17h.7v.75a1.4 1.4 0 0 1-.6.2l-.27.02c-.16 0-.31-.03-.46-.08a1.1 1.1 0 0 1-.36-.2.96.96 0 0 1-.23-.32.99.99 0 0 1-.09-.4c0-.15.03-.29.08-.42a.9.9 0 0 1 .24-.31c.1-.1.23-.16.36-.2a1.56 1.56 0 0 1 .74-.06 1.21 1.21 0 0 1 .55.23l-.08.12-.03.03h-.04l-.06-.01a1.34 1.34 0 0 1-.09-.05 1.17 1.17 0 0 0-.87-.06c-.1.04-.19.1-.26.16a.7.7 0 0 0-.17.25.92.92 0 0 0 0 .66.76.76 0 0 0 .45.4 1 1 0 0 0 .35.04zm2.89-.03h.99v.22h-1.3v-1.97h.32l-.01 1.75zm2.02.23h-.31v-1.98h.3v1.97zm1.15-1.97c.02 0 .03.02.05.03l1.32 1.5a.4.4 0 0 1 0-.08v-1.47h.27v1.98h-.22a.18.18 0 0 1-.05-.05l-1.32-1.48v1.53h-.26v-1.97h.21zm3.92-.01v.21h-1.1v.66h.9v.2h-.9v.68h1.1v.22h-1.41v-1.97h1.41zM11.29 4.62l13.75 3.37V19.8L11.3 16.43V4.62zM10.4 3.6V17l15.52 3.8V7.42L10.4 3.62z"/>
      <path fill="#afb1b8" style="fill:var(--color4, #afb1b8)" d="M18.72 27.04 3.2 23.23V9.83l15.52 3.8v13.4z"/>
      <path fill="#afb1b8" style="fill:var(--color4, #afb1b8)" d="M10.66 4.46 24.24 7.8l-5.78 5L4.88 9.44l5.78-4.99zm-.26-.85L3.2 9.83l15.52 3.8 7.2-6.21L10.4 3.6zm9.2 22.67 6.32-5.46-6.33-1.56v7.02z"/>
    </symbol>
    <symbol id="icon-Logo" viewBox="0 0 57 32">
      <path fill="#afb1b8" style="fill:var(--color4, #afb1b8)" d="M20.27 3.73 24 7.27h-6.93v17.16H35.2v-6.56l3.73 3.53V3.73H20.27zm14.77 13.72L24.44 7.42h10.6v10.03zm-3.3 4.47h-11.8V10.38h.83v10.76h10.98v.78zm-9.01 4.8-.44.9-.44-.9h-.36l.63 1.2v.7h.34v-.7l.63-1.2h-.36zm.54 1.9.16-.45h.73l.16.44h.34l-.72-1.9h-.3l-.7 1.9h.33zm.52-1.5.28.79h-.55l.28-.79zm1.74.74a.43.43 0 0 0-.07.24c0 .16.05.3.17.4s.26.14.45.14.35-.05.48-.15l.1.12h.38l-.28-.32c.1-.15.16-.35.16-.58h-.27c0 .13-.03.24-.08.35l-.37-.43.13-.1c.1-.06.16-.13.2-.2a.4.4 0 0 0-.08-.51.49.49 0 0 0-.33-.13c-.16 0-.28.05-.37.13s-.13.2-.13.36c0 .06 0 .12.04.18s.08.15.15.24c-.14.1-.23.19-.28.26zm.86.42c-.1.07-.2.1-.3.1-.1 0-.17-.02-.23-.07s-.09-.13-.09-.22c0-.1.06-.19.16-.27l.04-.03.41.5zm-.34-.84c-.1-.1-.14-.2-.14-.27s.02-.12.06-.16.08-.06.14-.06c.06 0 .1.01.15.05s.05.08.05.13c0 .07-.03.13-.08.18l-.04.03-.14.1zm3.08 1.03c.13-.11.2-.27.23-.47h-.33c-.02.13-.06.23-.13.29s-.16.09-.29.09c-.14 0-.25-.06-.32-.17s-.11-.26-.11-.47v-.16c0-.2.04-.36.12-.46s.18-.16.33-.16c.12 0 .22.03.28.09s.1.16.12.3h.33c-.02-.21-.1-.37-.23-.49s-.3-.17-.5-.17c-.16 0-.3.04-.41.11s-.21.18-.27.32c-.07.13-.1.3-.1.47v.18c0 .17.04.32.1.46s.15.23.26.3c.12.07.25.11.4.11.22 0 .4-.06.52-.17zm1.94-.26c.06-.15.1-.3.1-.5v-.1c0-.18-.04-.35-.1-.48s-.16-.25-.28-.32c-.12-.08-.26-.12-.41-.12s-.3.04-.41.12c-.12.07-.21.18-.28.32s-.1.3-.1.49v.1c0 .19.04.35.1.49a.73.73 0 0 0 .69.43c.16 0 .3-.04.41-.11s.21-.18.28-.32zm-.35-1.07c.08.1.12.27.12.48v.1c0 .21-.04.37-.12.48s-.2.17-.34.17-.26-.06-.34-.17-.12-.27-.12-.48v-.11c0-.2.04-.36.12-.47s.2-.17.34-.17.26.05.34.17z"/>
    </symbol>
    <symbol id="icon-smartphone" viewBox="0 0 20 32">
      <path fill="#757575" style="fill:var(--color5, #757575)" d="M17 0H3a3 3 0 0 0-3 3v26a3 3 0 0 0 3 3h14a3 3 0 0 0 3-3V3a3 3 0 0 0-3-3zM3 2h14a1 1 0 0 1 1 1v21H2V3a1 1 0 0 1 1-1zm14 28H3a1 1 0 0 1-1-1v-3h16v3a1 1 0 0 1-1 1z"/>
      <path fill="#757575" style="fill:var(--color5, #757575)" d="M4.7 27.48c.4.36.4.95 0 1.32s-1.02.36-1.4 0c-.4-.37-.4-.96 0-1.32s1.02-.37 1.4 0z"/>
    </symbol>
    <symbol id="icon-twitter" viewBox="0 0 32 32">
      <path fill="#afb1b8" style="fill:var(--color4, #afb1b8)" d="M32 6.08c-1.19.52-2.46.87-3.78 1.03a6.52 6.52 0 0 0 2.89-3.62 13.11 13.11 0 0 1-4.16 1.59 6.57 6.57 0 0 0-11.2 5.98A18.57 18.57 0 0 1 2.23 4.2a6.57 6.57 0 0 0 2.02 8.77 6.48 6.48 0 0 1-2.97-.81v.07a6.59 6.59 0 0 0 5.26 6.44 6.55 6.55 0 0 1-2.97.1 6.62 6.62 0 0 0 6.13 4.58 13.18 13.18 0 0 1-9.7 2.7A18.47 18.47 0 0 0 10.06 29c12.08 0 18.68-10 18.68-18.67 0-.29-.01-.57-.03-.85 1.3-.92 2.4-2.07 3.29-3.4z"/>
    </symbol>
    <symbol id="icon-twitter-footer" viewBox="0 0 32 32">
      <path fill="#fff" style="fill:var(--color3, #fff)" d="M32 6.08c-1.19.52-2.46.87-3.78 1.03a6.52 6.52 0 0 0 2.89-3.62 13.11 13.11 0 0 1-4.16 1.59 6.57 6.57 0 0 0-11.2 5.98A18.57 18.57 0 0 1 2.23 4.2a6.57 6.57 0 0 0 2.02 8.77 6.48 6.48 0 0 1-2.97-.81v.07a6.59 6.59 0 0 0 5.26 6.44 6.55 6.55 0 0 1-2.97.1 6.62 6.62 0 0 0 6.13 4.58 13.18 13.18 0 0 1-9.7 2.7A18.47 18.47 0 0 0 10.06 29c12.08 0 18.68-10 18.68-18.67 0-.29-.01-.57-.03-.85 1.3-.92 2.4-2.07 3.29-3.4z"/>
    </symbol>
  </defs>
</svg>
